PathFileType	4	(X/Y/Z)	Run_200 02
DataRate	CameraRate	NumFrames	NumMarkers	Units	OrigDataRate	OrigDataStartFrame	OrigNumFrames
100	100	6	42	mm	100	72	128
Frame#	Time	RASI			LPSI			RPSI			RTH1			RTH2			RTH3			LTH1			LTH2			LTH3			RTB1			RTB2			RTB3			LTB1			LTB2			LTB3			RCAL			RTOE			RMT5			LCAL			LTOE			LMT5			LACR			RACR			C7			RUA1			RUA2			RUA3			RLEL			RMEL			LUA2			LUA3			LLEL			LMEL			RFAsuperior			RFAradius			RFAulna			LFAsuperior			LFAradius			LFAulna			LUA1			CLAV			LASI			
		X1	Y1	Z1	X2	Y2	Z2	X3	Y3	Z3	X4	Y4	Z4	X5	Y5	Z5	X6	Y6	Z6	X7	Y7	Z7	X8	Y8	Z8	X9	Y9	Z9	X10	Y10	Z10	X11	Y11	Z11	X12	Y12	Z12	X13	Y13	Z13	X14	Y14	Z14	X15	Y15	Z15	X16	Y16	Z16	X17	Y17	Z17	X18	Y18	Z18	X19	Y19	Z19	X20	Y20	Z20	X21	Y21	Z21	X22	Y22	Z22	X23	Y23	Z23	X24	Y24	Z24	X25	Y25	Z25	X26	Y26	Z26	X27	Y27	Z27	X28	Y28	Z28	X29	Y29	Z29	X30	Y30	Z30	X31	Y31	Z31	X32	Y32	Z32	X33	Y33	Z33	X34	Y34	Z34	X35	Y35	Z35	X36	Y36	Z36	X37	Y37	Z37	X38	Y38	Z38	X39	Y39	Z39	X40	Y40	Z40	X41	Y41	Z41	X42	Y42	Z42	

60	1.42	1190.331611	989.042328	-174.646777	1023.474147	1040.877728	-352.668663	1018.182601	1033.810232	-259.786878	1186.035207	823.517101	-125.010123	1264.938219	749.354068	-133.626672	1261.483479	608.938069	-143.611595	1121.737942	846.64453	-494.159964	1188.012872	717.840835	-477.160839	1115.891665	599.071608	-453.25267	1231.930045	386.391288	-203.66989	1121.732371	361.657235	-162.680023	1087.034107	285.302333	-213.840012	1101.231447	317.746772	-359.624582	1043.228862	271.868353	-393.748174	1026.12273	202.909297	-329.000726	928.841215	299.646992	-230.087727	1088.960017	128.804522	-197.227022	1056.970923	139.490631	-124.486719	859.375189	117.531199	-298.028765	1098.546989	71.279124	-272.695111	1068.346062	55.118827	-359.150889	1230.561234	1500.897626	-489.291825	1187.143706	1492.652735	-143.613737	1151.637296	1531.363092	-324.558778	1086.870099	1386.526336	-75.768642	1019.010255	1397.297432	-94.34022400000001	1009.693049	1326.785604	-69.221113	955.076742	1267.454353	-54.718165	930.195423	1272.544935	-144.105568	1086.337718	1339.417843	-552.845958	1119.149133	1263.982405	-576.362619	1099.280839	1198.944125	-589.457049	1061.276282	1190.436705	-504.576716	1034.708429	1226.190986	-63.399475	1174.664816	1152.494779	-130.358262	1131.380081	1100.004712	-105.345799	1183.944597	1184.095704	-566.2387179999999	1326.775052	1202.619916	-462.469692	1331.205269	1134.662698	-488.002627	1172.403263	1382.849769	-562.37565	1254.996637	1435.214651	-278.485996	1198.606986	995.393737	-434.150488	
61	1.43	1191.563501	994.450028	-175.558804	1024.800004	1045.481881	-353.149734	1020.042707	1039.438101	-260.310773	1187.62361	830.605805	-123.928577	1267.163289	757.472492	-133.609126	1266.212055	617.343043	-143.89933	1119.690678	849.327681	-493.183209	1181.843304	718.755491	-474.997678	1104.974131	602.264961	-452.11396	1245.999459	390.919157	-203.699377	1137.026433	359.633464	-163.309718	1107.303548	281.068856	-214.575219	1083.596564	320.476307	-358.90753	1025.383188	275.252323	-393.650644	1008.148461	205.958313	-329.376912	948.231621	284.897167	-231.55621	1120.120832	125.91049	-198.771908	1087.015022	133.462767	-125.869241	841.267636	122.404563	-299.35412	1078.711079	70.570003	-272.265102	1048.46276	55.054408	-359.007077	1232.231526	1508.137818	-487.663306	1184.681068	1499.418128	-143.8123	1150.788145	1536.812236	-324.914205	1081.864446	1397.022393	-76.372446	1015.132884	1408.626904	-98.17071	1003.361291	1339.585671	-70.61312700000001	947.316567	1281.423334	-56.483107	924.357574	1285.505362	-146.489924	1092.061945	1343.895614	-555.46345	1128.067601	1269.079158	-577.102996	1109.588443	1203.597376	-589.998966	1068.221946	1195.384894	-506.57059	1027.128066	1240.602556	-63.319048	1169.307117	1169.151873	-128.25693	1126.383269	1116.379167	-103.499911	1193.631968	1192.521804	-563.753064	1331.876493	1220.0239	-456.050402	1339.834738	1151.503872	-478.545862	1177.052828	1389.627913	-561.8716010000001	1254.016049	1441.738476	-277.227927	1199.499949	1000.155931	-434.959294	
62	1.44	1193.034777	1000.891291	-176.29729	1026.680839	1050.593972	-354.04486	1021.549465	1045.652827	-260.982732	1189.278542	838.13797	-123.165275	1269.29556	765.904213	-133.576626	1270.12259	625.867715	-144.408694	1118.227001	852.43694	-492.22583	1175.844238	720.366035	-472.724846	1094.206178	606.33494	-450.945892	1259.350907	395.007778	-204.521612	1152.439694	356.628269	-164.3232	1127.945332	276.443363	-216.29775	1066.360256	324.142754	-358.132206	1007.934808	279.677445	-393.718029	990.666974	209.89751	-329.888329	968.704335	269.48922	-233.086058	1151.629169	123.15899	-201.740486	1117.938807	127.172909	-128.54804	823.892007	128.555511	-300.798219	1059.168747	70.034145	-272.024436	1028.696393	55.033319	-358.870492	1233.547877	1516.268794	-485.774329	1182.970009	1506.654525	-143.901591	1149.935687	1542.813978	-324.957169	1078.101427	1407.812706	-76.792374	1012.545659	1420.495131	-101.514444	998.197436	1353.16153	-71.737944	940.617242	1296.060093	-58.014773	919.401754	1299.305192	-148.565621	1097.980372	1349.563964	-558.398597	1136.56296	1275.495085	-578.114108	1119.518522	1209.55905	-590.9577860000001	1074.645701	1201.471926	-509.310718	1020.472192	1255.663523	-63.258028	1164.693203	1186.531941	-126.595033	1122.167367	1133.357615	-102.321984	1202.554562	1201.822193	-561.595699	1335.523986	1237.661041	-450.010917	1346.612783	1168.775914	-469.208212	1181.5519	1397.517531	-561.432224	1253.258	1448.789891	-276.151835	1200.715266	1005.984926	-435.744624	
63	1.45	1194.690842	1008.127071	-176.906701	1028.950519	1056.151139	-355.265844	1023.068132	1052.359455	-262.069529	1191.012909	845.9645829999999	-122.635733	1271.348662	774.42573	-133.537393	1273.092968	634.254715	-145.317911	1117.281279	855.931675	-491.325736	1170.114606	722.643728	-470.455727	1083.739272	611.29534	-449.912802	1271.915059	398.763751	-206.172867	1168.00456	352.776636	-165.769892	1148.83762	271.651258	-218.88362	1049.797442	328.83132	-357.745273	991.105855	285.08982	-393.957222	973.8836	214.702134	-330.465917	990.197349	253.546257	-234.639891	1183.551961	120.83044	-205.892812	1149.85942	121.213707	-132.357882	807.466923	135.973045	-302.199222	1039.923706	69.713269	-271.975839	1009.073922	55.122205	-358.847549	1234.676753	1525.08149	-483.752129	1181.813099	1514.188226	-143.867315	1149.092287	1549.206782	-324.730995	1075.357078	1418.681233	-76.980571	1010.969001	1432.727104	-104.083923	994.193304	1367.015525	-72.54906	934.9918269999999	1310.965157	-59.260029	915.305898	1313.660667	-150.358084	1104.15521	1356.607075	-561.350945	1144.339868	1283.29467	-579.413494	1128.743017	1216.838807	-592.277792	1080.531055	1208.687781	-512.444599	1014.843902	1271.184715	-63.29237	1160.79545	1204.221058	-125.330258	1118.721402	1150.455298	-101.836779	1210.677801	1212.039606	-559.808279	1337.952963	1255.091839	-444.575234	1351.738536	1186.009594	-460.495637	1186.220084	1406.224173	-561.07937	1252.667605	1456.220395	-275.118589	1202.108121	1012.569539	-436.372187	
64	1.46	1196.479328	1015.746687	-177.543762	1031.473771	1062.017424	-356.78073	1025.013334	1059.342499	-263.61314	1192.818781	853.948501	-122.253161	1273.240246	782.675495	-133.674233	1275.019287	642.163395	-146.819066	1116.724677	859.727346	-490.479106	1164.75402	725.484959	-468.27254	1073.873004	616.987042	-449.09163	1283.612935	402.265981	-208.49226	1183.642944	348.268703	-167.639389	1169.81295	266.836597	-221.999748	1034.069195	334.467525	-357.907275	975.046149	291.374906	-394.407922	957.9566129999999	220.294794	-331.150253	1012.633756	237.139941	-236.280654	1215.844566	119.21963	-211.028358	1182.646135	115.83255	-137.152504	792.0971039999999	144.519027	-303.493565	1020.862041	69.518967	-272.048972	989.570202	55.330409	-358.938094	1235.688547	1534.346709	-481.670377	1181.019887	1521.87608	-143.744195	1148.268311	1555.876738	-324.307435	1073.375937	1429.524379	-76.976471	1010.082065	1445.126746	-105.724533	991.23439	1380.650385	-73.019046	930.375752	1325.696925	-60.163469	912.04528	1328.216251	-151.877074	1110.250035	1364.974826	-563.936473	1151.341501	1292.326176	-580.932204	1137.065823	1225.318045	-593.907273	1085.803508	1216.926842	-515.703426	1010.2675	1286.756426	-63.386447	1157.627219	1221.823951	-124.343358	1116.036518	1167.297327	-101.976118	1217.913214	1223.020746	-558.4771930000001	1339.465524	1271.919431	-439.814838	1355.516152	1202.775944	-452.720656	1191.079205	1415.528398	-560.752884	1252.224044	1463.87148	-274.117509	1203.597534	1019.510657	-436.955306	
65	1.47	1198.373223	1023.325213	-178.330956	1034.239045	1067.963727	-358.489858	1027.37417	1066.323481	-265.287259	1194.684018	861.965346	-121.958358	1274.898981	790.306281	-134.078486	1275.837754	649.311781	-148.865739	1116.434731	863.734966	-489.670926	1159.87634	728.761216	-466.239067	1064.888973	623.14027	-448.454338	1294.340771	405.458337	-211.157835	1199.206484	343.284689	-169.86363	1190.736146	262.079106	-225.385331	1019.27274	340.817941	-358.46024	959.8624139999999	298.373163	-395.07867	942.983005	226.540893	-332.073295	1035.994842	220.39579	-238.177973	1248.266612	118.579048	-216.982041	1216.007328	111.134328	-142.811351	777.802097	153.986614	-304.749925	1001.930627	69.363055	-272.227479	970.161469	55.610872	-359.077471	1236.624362	1543.867319	-479.52496	1180.483157	1529.62681	-143.603226	1147.463853	1562.715439	-323.765745	1071.989166	1440.305346	-76.85468899999999	1009.669777	1457.465447	-106.502217	989.164402	1393.703487	-73.12098899999999	926.683495	1339.840373	-60.69192	909.5274879999999	1342.566057	-153.075746	1115.774239	1374.404669	-565.890344	1157.60219	1302.290789	-582.5271289999999	1144.413634	1234.749029	-595.7562390000001	1090.543141	1225.934756	-519.013601	1006.709568	1301.886706	-63.438623	1155.210895	1238.990218	-123.490069	1114.134549	1183.602022	-102.577643	1224.191944	1234.435771	-557.657979	1340.327831	1287.793175	-435.715554	1358.239406	1218.702486	-446.009722	1195.897473	1425.282977	-560.3197259999999	1251.931657	1471.606195	-273.181574	1205.179762	1026.416405	-437.669626	
